<svg width="615.6px" height="122px" xmlns="http://www.w3.org/2000/svg" viewBox="-57.796875 14 615.59375 122" style="background: rgba(0, 0, 0, 0)" preserveAspectRatio="xMidYMid"><defs><filter id="editing-raise" x="-100%" y="-100%" width="300%" height="300%"><feFlood flood-color="#bb1b1b" result="flood-surface"></feFlood><feFlood flood-color="#8e2626" result="flood-extrude"></feFlood><feMorphology operator="erode" in="SourceAlpha" radius="1" result="erode"></feMorphology><feConvolveMatrix in="erode" result="shadow" order="11,8" divisor="1" kernelMatrix="0 0 0 1 1 1 1 1 0 0 0 0 0 1 0 0 0 0 0 1 0 0 0 0 1 0 0 0 0 0 1 0 0 0 0 1 0 0 0 0 0 1 0 0 0 0 1 0 0 0 0 0 1 0 0 0 0 0 1 0 0 0 1 0 0 0 0 0 0 1 1 0 1 1 0 0 0 0 0 0 0 0 1 0 0 0 0 0"></feConvolveMatrix><feOffset dx="0" dy="4" in="shadow" result="offset"></feOffset><feGaussianBlur in="offset" stdDeviation="0.2" result="blur"></feGaussianBlur><feComposite operator="in" in="flood-extrude" in2="blur" result="extrude"></feComposite><feMorphology operator="erode" in="SourceAlpha" radius="1" result="erode2"></feMorphology><feConvolveMatrix in="erode2" result="out" order="4,4" divisor="1" kernelMatrix="0 1 1 0 1 0 0 1 1 0 0 1 0 1 1 0 "></feConvolveMatrix><feComposite operator="in" in="flood-surface" in2="out" result="text"></feComposite><feMerge><feMergeNode in="extrude"></feMergeNode><feMergeNode in="text"></feMergeNode></feMerge></filter></defs><g filter="url(#editing-raise)"><g transform="matrix(1,0,0,1.5,31.4,166.5)"><path d="M 13.2 -44.5 L -0.7 -44.5 L 7.4 -86.7 L 21.5 -86.7 L 13.2 -44.5 Z M 69 -43.2 L 69 -43.2 L 69 -43.2 Q 61.2 -43.2 61.2 -49.2 L 61.2 -49.2 L 61.2 -49.2 Q 61.2 -51.9 62.4 -56.9 L 62.4 -56.9 L 62.4 -56.9 Q 63.5 -62 63.9 -64.1 L 63.9 -64.1 L 63.9 -64.1 Q 64.8 -68.8 64.8 -70.2 L 64.8 -70.2 L 64.8 -70.2 Q 64.8 -73.5 62.3 -73.5 L 62.3 -73.5 L 62.3 -73.5 Q 60.7 -73.5 59.2 -71.3 L 59.2 -71.3 L 59.2 -71.3 Q 57.6 -69.1 56.9 -64.7 L 56.9 -64.7 L 53 -44.5 L 40.5 -43.2 L 44 -60.6 L 44 -60.6 Q 44.5 -63.5 45 -66.8 L 45 -66.8 L 45 -66.8 Q 45.6 -70 45.6 -70.5 L 45.6 -70.5 L 45.6 -70.5 Q 45.6 -73.5 43.4 -73.5 L 43.4 -73.5 L 43.4 -73.5 Q 41.9 -73.5 40.3 -71.3 L 40.3 -71.3 L 40.3 -71.3 Q 38.7 -69.1 37.8 -64.7 L 37.8 -64.7 L 33.9 -44.5 L 21.3 -43.2 L 28 -77.1 L 38.4 -78.4 L 37.4 -72 L 37.4 -72 Q 39 -75.4 42.1 -76.9 L 42.1 -76.9 L 42.1 -76.9 Q 45.2 -78.4 50 -78.4 L 50 -78.4 L 50 -78.4 Q 52.7 -78.4 54.5 -77.1 L 54.5 -77.1 L 54.5 -77.1 Q 56.3 -75.7 56.9 -73.6 L 56.9 -73.6 L 56.9 -73.6 Q 58 -75.8 60.8 -77.1 L 60.8 -77.1 L 60.8 -77.1 Q 63.5 -78.4 67 -78.4 L 67 -78.4 L 67 -78.4 Q 70.4 -78.4 72.1 -77.7 L 72.1 -77.7 L 72.1 -77.7 Q 73.8 -76.9 74.8 -75.7 L 74.8 -75.7 L 74.8 -75.7 Q 76.5 -73.5 76.5 -69.4 L 76.5 -69.4 L 76.5 -69.4 Q 76.5 -65.4 74.8 -57 L 74.8 -57 L 74.8 -57 Q 73.9 -52.9 73.9 -51.4 L 73.9 -51.4 L 73.9 -51.4 Q 73.9 -49.9 74.8 -49 L 74.8 -49 L 74.8 -49 Q 75.6 -48.1 76.9 -48 L 76.9 -48 L 76.9 -48 Q 76.3 -45.8 74.1 -44.5 L 74.1 -44.5 L 74.1 -44.5 Q 71.9 -43.2 69 -43.2 Z M 84.6 -46.4 L 84.6 -46.4 L 84.6 -46.4 Q 83.1 -48.1 82.4 -50.7 L 82.4 -50.7 L 82.4 -50.7 Q 81.8 -53.3 81.8 -57.6 L 81.8 -57.6 L 81.8 -57.6 Q 81.8 -61.9 83.2 -65.8 L 83.2 -65.8 L 83.2 -65.8 Q 84.7 -69.7 87.4 -72.5 L 87.4 -72.5 L 87.4 -72.5 Q 92.9 -78.4 102 -78.4 L 102 -78.4 L 102 -78.4 Q 105.3 -78.4 107.6 -77.3 L 107.6 -77.3 L 118.6 -78.4 L 113.8 -53.5 L 113.8 -53.5 Q 113.6 -52.7 113.6 -51.3 L 113.6 -51.3 L 113.6 -51.3 Q 113.6 -49.9 114.5 -49 L 114.5 -49 L 114.5 -49 Q 115.4 -48.1 116.7 -48 L 116.7 -48 L 116.7 -48 Q 116 -45.8 113.7 -44.5 L 113.7 -44.5 L 113.7 -44.5 Q 111.3 -43.2 108.7 -43.2 L 108.7 -43.2 L 108.7 -43.2 Q 106.1 -43.2 104.3 -44.2 L 104.3 -44.2 L 104.3 -44.2 Q 102.6 -45.2 102.1 -46.9 L 102.1 -46.9 L 102.1 -46.9 Q 101 -45.3 98.9 -44.2 L 98.9 -44.2 L 98.9 -44.2 Q 96.7 -43.2 93.8 -43.2 L 93.8 -43.2 L 93.8 -43.2 Q 90.9 -43.2 88.5 -44 L 88.5 -44 L 88.5 -44 Q 86.1 -44.8 84.6 -46.4 Z M 98.1 -72.4 L 98.1 -72.4 L 98.1 -72.4 Q 97.4 -71.2 96.8 -69.3 L 96.8 -69.3 L 96.8 -69.3 Q 96.1 -67.3 95.1 -62.1 L 95.1 -62.1 L 95.1 -62.1 Q 94 -56.9 94 -53.2 L 94 -53.2 L 94 -53.2 Q 94 -49.5 94.6 -48.4 L 94.6 -48.4 L 94.6 -48.4 Q 95.2 -47.3 96.2 -47.3 L 96.2 -47.3 L 96.2 -47.3 Q 98.2 -47.3 99.7 -49.3 L 99.7 -49.3 L 99.7 -49.3 Q 101.2 -51.2 101.8 -54.7 L 101.8 -54.7 L 105.2 -73.4 L 105.2 -73.4 Q 103.9 -74.6 102.3 -74.6 L 102.3 -74.6 L 102.3 -74.6 Q 100.7 -74.6 99.8 -74.1 L 99.8 -74.1 L 99.8 -74.1 Q 98.9 -73.6 98.1 -72.4 Z M 126.3 -71.2 L 126.3 -71.2 L 126.3 -71.2 Q 128.5 -74.3 131.8 -76.4 L 131.8 -76.4 L 131.8 -76.4 Q 135.1 -78.4 139.1 -78.4 L 139.1 -78.4 L 139.1 -78.4 Q 143.2 -78.4 145.1 -77.1 L 145.1 -77.1 L 157.6 -78.4 L 153.3 -53.8 L 153.3 -53.8 Q 151 -41.3 146.3 -36.4 L 146.3 -36.4 L 146.3 -36.4 Q 141.7 -31.7 132.9 -31.7 L 132.9 -31.7 L 132.9 -31.7 Q 126.2 -31.7 122.4 -33.8 L 122.4 -33.8 L 122.4 -33.8 Q 118.5 -35.9 118.5 -39.4 L 118.5 -39.4 L 118.5 -39.4 Q 118.5 -42.1 120.5 -43.6 L 120.5 -43.6 L 120.5 -43.6 Q 122.5 -45.1 125.6 -45.1 L 125.6 -45.1 L 125.6 -45.1 Q 128.2 -45.1 130.3 -43.9 L 130.3 -43.9 L 130.3 -43.9 Q 131.5 -43.2 132.1 -42.3 L 132.1 -42.3 L 132.1 -42.3 Q 130.6 -41 130.6 -38.9 L 130.6 -38.9 L 130.6 -38.9 Q 130.6 -36.2 133.2 -36.2 L 133.2 -36.2 L 133.2 -36.2 Q 137.5 -36.2 139.9 -46.3 L 139.9 -46.3 L 139.9 -46.3 Q 140.6 -49 141.2 -51.8 L 141.2 -51.8 L 141.2 -51.8 Q 138.3 -48.3 131.8 -48.3 L 131.8 -48.3 L 131.8 -48.3 Q 127.2 -48.3 124.6 -50.4 L 124.6 -50.4 L 124.6 -50.4 Q 122 -52.6 122 -57.7 L 122 -57.7 L 122 -57.7 Q 122 -60.9 123.1 -64.6 L 123.1 -64.6 L 123.1 -64.6 Q 124.1 -68.2 126.3 -71.2 Z M 134.6 -57.6 L 134.6 -57.6 L 134.6 -57.6 Q 134.6 -53.2 136.9 -53.2 L 136.9 -53.2 L 136.9 -53.2 Q 138.4 -53.2 139.9 -54.9 L 139.9 -54.9 L 139.9 -54.9 Q 141 -56.2 141.5 -58.2 L 141.5 -58.2 L 144.8 -74.6 L 144.8 -74.6 Q 144.4 -74.7 144.1 -74.8 L 144.1 -74.8 L 144.1 -74.8 Q 143.5 -75.1 142.6 -75.1 L 142.6 -75.1 L 142.6 -75.1 Q 138.7 -75.1 136.4 -68.7 L 136.4 -68.7 L 136.4 -68.7 Q 134.6 -63.7 134.6 -57.6 Z M 186 -55.3 L 186 -55.3 L 186 -55.3 Q 187.6 -54.2 187.6 -51.8 L 187.6 -51.8 L 187.6 -51.8 Q 187.6 -49.4 186.4 -47.9 L 186.4 -47.9 L 186.4 -47.9 Q 185.2 -46.4 183.2 -45.3 L 183.2 -45.3 L 183.2 -45.3 Q 179.1 -43.2 174.7 -43.2 L 174.7 -43.2 L 174.7 -43.2 Q 170.3 -43.2 167.7 -44.2 L 167.7 -44.2 L 167.7 -44.2 Q 165.1 -45.1 163.4 -46.9 L 163.4 -46.9 L 163.4 -46.9 Q 160 -50.3 160 -56.5 L 160 -56.5 L 160 -56.5 Q 160 -66.2 165.2 -72.1 L 165.2 -72.1 L 165.2 -72.1 Q 170.9 -78.4 180.7 -78.4 L 180.7 -78.4 L 180.7 -78.4 Q 186.7 -78.4 189.7 -75.9 L 189.7 -75.9 L 189.7 -75.9 Q 192 -73.9 192 -70.8 L 192 -70.8 L 192 -70.8 Q 192 -59.5 172.5 -59.5 L 172.5 -59.5 L 172.5 -59.5 Q 172.3 -57.9 172.3 -56.5 L 172.3 -56.5 L 172.3 -56.5 Q 172.3 -53.5 173.6 -52.4 L 173.6 -52.4 L 173.6 -52.4 Q 174.9 -51.3 177.3 -51.3 L 177.3 -51.3 L 177.3 -51.3 Q 179.8 -51.3 182.4 -52.4 L 182.4 -52.4 L 182.4 -52.4 Q 184.9 -53.5 186 -55.3 Z M 173 -62.3 L 173 -62.3 L 173 -62.3 Q 177.5 -62.3 180.1 -65.1 L 180.1 -65.1 L 180.1 -65.1 Q 182.8 -67.8 182.8 -72.1 L 182.8 -72.1 L 182.8 -72.1 Q 182.8 -73.6 182.2 -74.4 L 182.2 -74.4 L 182.2 -74.4 Q 181.7 -75.2 180.6 -75.2 L 180.6 -75.2 L 180.6 -75.2 Q 179.5 -75.2 178.6 -74.7 L 178.6 -74.7 L 178.6 -74.7 Q 177.6 -74.3 176.7 -72.9 L 176.7 -72.9 L 176.7 -72.9 Q 174.3 -69.7 173 -62.3 Z M 233.3 -65.1 L 246.2 -66.3 L 246.2 -66.3 Q 241.6 -56.1 241.6 -44.4 L 241.6 -44.4 L 241.6 -44.4 Q 239.9 -43.2 237.3 -43.2 L 237.3 -43.2 L 237.3 -43.2 Q 234.8 -43.2 233.2 -44.4 L 233.2 -44.4 L 233.2 -44.4 Q 231.6 -45.6 231.3 -46.8 L 231.3 -46.8 L 231.3 -46.8 Q 229.7 -45.1 227.1 -44.2 L 227.1 -44.2 L 227.1 -44.2 Q 224.5 -43.2 221.7 -43.2 L 221.7 -43.2 L 221.7 -43.2 Q 219 -43.2 216.6 -44.1 L 216.6 -44.1 L 216.6 -44.1 Q 214.2 -45 212.3 -47 L 212.3 -47 L 212.3 -47 Q 208.2 -51.3 208.2 -59.6 L 208.2 -59.6 L 208.2 -59.6 Q 208.2 -72.4 215.1 -80.1 L 215.1 -80.1 L 215.1 -80.1 Q 222.1 -88 234.6 -88 L 234.6 -88 L 234.6 -88 Q 243.2 -88 246.3 -83.5 L 246.3 -83.5 L 246.3 -83.5 Q 247.3 -82.1 247.3 -80.4 L 247.3 -80.4 L 247.3 -80.4 Q 247.3 -78.7 246.5 -77.3 L 246.5 -77.3 L 246.5 -77.3 Q 245.8 -75.9 244.7 -74.7 L 244.7 -74.7 L 244.7 -74.7 Q 241.9 -72.1 238.5 -72.1 L 238.5 -72.1 L 238.5 -72.1 Q 237.2 -72.1 235.9 -72.6 L 235.9 -72.6 L 235.9 -72.6 Q 236.1 -74.5 236.1 -76.8 L 236.1 -76.8 L 236.1 -76.8 Q 236.1 -79 236 -80 L 236 -80 L 236 -80 Q 235.8 -81 235.4 -81.9 L 235.4 -81.9 L 235.4 -81.9 Q 234.6 -83.6 232.8 -83.6 L 232.8 -83.6 L 232.8 -83.6 Q 231 -83.6 228.9 -81.6 L 228.9 -81.6 L 228.9 -81.6 Q 226.9 -79.7 225.3 -76.5 L 225.3 -76.5 L 225.3 -76.5 Q 221.8 -69.3 221.8 -60.7 L 221.8 -60.7 L 221.8 -60.7 Q 221.8 -56.7 223.3 -53.9 L 223.3 -53.9 L 223.3 -53.9 Q 225 -50.8 228 -50.8 L 228 -50.8 L 228 -50.8 Q 229 -50.8 229.9 -51.3 L 229.9 -51.3 L 229.9 -51.3 Q 230.8 -51.9 231.2 -52.2 L 231.2 -52.2 L 233.3 -65.1 Z M 252.1 -46.4 L 252.1 -46.4 L 252.1 -46.4 Q 250.6 -48.1 249.9 -50.7 L 249.9 -50.7 L 249.9 -50.7 Q 249.3 -53.3 249.3 -57.6 L 249.3 -57.6 L 249.3 -57.6 Q 249.3 -61.9 250.7 -65.8 L 250.7 -65.8 L 250.7 -65.8 Q 252.2 -69.7 254.9 -72.5 L 254.9 -72.5 L 254.9 -72.5 Q 260.4 -78.4 269.5 -78.4 L 269.5 -78.4 L 269.5 -78.4 Q 272.8 -78.4 275.1 -77.3 L 275.1 -77.3 L 286.1 -78.4 L 281.3 -53.5 L 281.3 -53.5 Q 281.1 -52.7 281.1 -51.3 L 281.1 -51.3 L 281.1 -51.3 Q 281.1 -49.9 282 -49 L 282 -49 L 282 -49 Q 282.9 -48.1 284.1 -48 L 284.1 -48 L 284.1 -48 Q 283.5 -45.8 281.2 -44.5 L 281.2 -44.5 L 281.2 -44.5 Q 278.8 -43.2 276.2 -43.2 L 276.2 -43.2 L 276.2 -43.2 Q 273.6 -43.2 271.8 -44.2 L 271.8 -44.2 L 271.8 -44.2 Q 270.1 -45.2 269.6 -46.9 L 269.6 -46.9 L 269.6 -46.9 Q 268.5 -45.3 266.4 -44.2 L 266.4 -44.2 L 266.4 -44.2 Q 264.2 -43.2 261.3 -43.2 L 261.3 -43.2 L 261.3 -43.2 Q 258.4 -43.2 256 -44 L 256 -44 L 256 -44 Q 253.6 -44.8 252.1 -46.4 Z M 265.6 -72.4 L 265.6 -72.4 L 265.6 -72.4 Q 264.9 -71.2 264.2 -69.3 L 264.2 -69.3 L 264.2 -69.3 Q 263.6 -67.3 262.5 -62.1 L 262.5 -62.1 L 262.5 -62.1 Q 261.5 -56.9 261.5 -53.2 L 261.5 -53.2 L 261.5 -53.2 Q 261.5 -49.5 262.1 -48.4 L 262.1 -48.4 L 262.1 -48.4 Q 262.6 -47.3 263.7 -47.3 L 263.7 -47.3 L 263.7 -47.3 Q 265.7 -47.3 267.2 -49.3 L 267.2 -49.3 L 267.2 -49.3 Q 268.7 -51.2 269.3 -54.7 L 269.3 -54.7 L 272.7 -73.4 L 272.7 -73.4 Q 271.3 -74.6 269.8 -74.6 L 269.8 -74.6 L 269.8 -74.6 Q 268.2 -74.6 267.3 -74.1 L 267.3 -74.1 L 267.3 -74.1 Q 266.4 -73.6 265.6 -72.4 Z M 304.8 -48 L 304.8 -48 L 304.8 -48 Q 302.8 -43.2 296.5 -43.2 L 296.5 -43.2 L 296.5 -43.2 Q 293.3 -43.2 291.2 -45.5 L 291.2 -45.5 L 291.2 -45.5 Q 289.6 -47.3 289.6 -49.4 L 289.6 -49.4 L 289.6 -49.4 Q 289.6 -54.2 291.8 -64.7 L 291.8 -64.7 L 296.5 -89.3 L 309.5 -90.6 L 303.3 -58.2 L 303.3 -58.2 Q 302.2 -53.5 302.2 -51.8 L 302.2 -51.8 L 302.2 -51.8 Q 302.2 -48.1 304.8 -48 Z M 325.6 -48 L 325.6 -48 L 325.6 -48 Q 323.6 -43.2 317.2 -43.2 L 317.2 -43.2 L 317.2 -43.2 Q 314 -43.2 312 -45.5 L 312 -45.5 L 312 -45.5 Q 310.3 -47.3 310.3 -49.4 L 310.3 -49.4 L 310.3 -49.4 Q 310.3 -54.2 312.6 -64.7 L 312.6 -64.7 L 317.2 -89.3 L 330.2 -90.6 L 324 -58.2 L 324 -58.2 Q 322.9 -53.5 322.9 -51.8 L 322.9 -51.8 L 322.9 -51.8 Q 322.9 -48.1 325.6 -48 Z M 356.9 -55.3 L 356.9 -55.3 L 356.9 -55.3 Q 358.5 -54.2 358.5 -51.8 L 358.5 -51.8 L 358.5 -51.8 Q 358.5 -49.4 357.3 -47.9 L 357.3 -47.9 L 357.3 -47.9 Q 356.1 -46.4 354.1 -45.3 L 354.1 -45.3 L 354.1 -45.3 Q 350 -43.2 345.6 -43.2 L 345.6 -43.2 L 345.6 -43.2 Q 341.2 -43.2 338.6 -44.2 L 338.6 -44.2 L 338.6 -44.2 Q 336 -45.1 334.3 -46.9 L 334.3 -46.9 L 334.3 -46.9 Q 330.9 -50.3 330.9 -56.5 L 330.9 -56.5 L 330.9 -56.5 Q 330.9 -66.2 336.1 -72.1 L 336.1 -72.1 L 336.1 -72.1 Q 341.7 -78.4 351.5 -78.4 L 351.5 -78.4 L 351.5 -78.4 Q 357.6 -78.4 360.6 -75.9 L 360.6 -75.9 L 360.6 -75.9 Q 362.9 -73.9 362.9 -70.8 L 362.9 -70.8 L 362.9 -70.8 Q 362.9 -59.5 343.4 -59.5 L 343.4 -59.5 L 343.4 -59.5 Q 343.2 -57.9 343.2 -56.5 L 343.2 -56.5 L 343.2 -56.5 Q 343.2 -53.5 344.5 -52.4 L 344.5 -52.4 L 344.5 -52.4 Q 345.8 -51.3 348.2 -51.3 L 348.2 -51.3 L 348.2 -51.3 Q 350.6 -51.3 353.2 -52.4 L 353.2 -52.4 L 353.2 -52.4 Q 355.8 -53.5 356.9 -55.3 Z M 343.9 -62.3 L 343.9 -62.3 L 343.9 -62.3 Q 348.4 -62.3 351 -65.1 L 351 -65.1 L 351 -65.1 Q 353.6 -67.8 353.6 -72.1 L 353.6 -72.1 L 353.6 -72.1 Q 353.6 -73.6 353.1 -74.4 L 353.1 -74.4 L 353.1 -74.4 Q 352.6 -75.2 351.5 -75.2 L 351.5 -75.2 L 351.5 -75.2 Q 350.4 -75.2 349.5 -74.7 L 349.5 -74.7 L 349.5 -74.7 Q 348.5 -74.3 347.6 -72.9 L 347.6 -72.9 L 347.6 -72.9 Q 345.2 -69.7 343.9 -62.3 Z M 385.1 -62.5 L 385.1 -62.5 L 385.1 -62.5 Q 387.4 -66.6 387.4 -70.7 L 387.4 -70.7 L 387.4 -70.7 Q 387.4 -73.5 385.4 -73.5 L 385.4 -73.5 L 385.4 -73.5 Q 383.9 -73.5 382.3 -70.9 L 382.3 -70.9 L 382.3 -70.9 Q 380.6 -68.2 380.1 -64.8 L 380.1 -64.8 L 376.8 -44.5 L 363.5 -43.2 L 370 -77.1 L 380.6 -78.4 L 379.4 -72 L 379.4 -72 Q 382.6 -78.4 389.6 -78.4 L 389.6 -78.4 L 389.6 -78.4 Q 393.3 -78.4 395.3 -76.5 L 395.3 -76.5 L 395.3 -76.5 Q 397.4 -74.6 397.4 -70.6 L 397.4 -70.6 L 397.4 -70.6 Q 397.4 -66.7 394.8 -64.2 L 394.8 -64.2 L 394.8 -64.2 Q 392.2 -61.7 387.8 -61.7 L 387.8 -61.7 L 387.8 -61.7 Q 385.8 -61.7 385.1 -62.5 Z M 418.7 -51.7 L 418.7 -51.7 L 418.7 -51.7 Q 415.4 -48.3 409.3 -48.3 L 409.3 -48.3 L 409.3 -48.3 Q 401.7 -48.3 400.1 -53.8 L 400.1 -53.8 L 400.1 -53.8 Q 399.6 -55.5 399.6 -57.4 L 399.6 -57.4 L 399.6 -57.4 Q 399.6 -59.2 400 -61.1 L 400 -61.1 L 403 -77.1 L 416 -78.4 L 412.5 -59.8 L 412.5 -59.8 Q 412.3 -59 412.1 -58.1 L 412.1 -58.1 L 412.1 -58.1 Q 412 -57.2 412 -56.2 L 412 -56.2 L 412 -56.2 Q 412 -55.3 412.3 -54.7 L 412.3 -54.7 L 412.3 -54.7 Q 412.6 -54.1 413 -53.7 L 413 -53.7 L 413 -53.7 Q 413.8 -53.2 415.2 -53.2 L 415.2 -53.2 L 415.2 -53.2 Q 416.6 -53.2 417.7 -54.9 L 417.7 -54.9 L 417.7 -54.9 Q 418.9 -56.5 419.5 -59.4 L 419.5 -59.4 L 423 -77.1 L 435.6 -78.4 L 430.8 -53.3 L 430.8 -53.3 Q 428.5 -41 423.6 -36.1 L 423.6 -36.1 L 423.6 -36.1 Q 421.1 -33.6 417.9 -32.6 L 417.9 -32.6 L 417.9 -32.6 Q 414.6 -31.6 410.5 -31.6 L 410.5 -31.6 L 410.5 -31.6 Q 403.8 -31.6 399.9 -33.7 L 399.9 -33.7 L 399.9 -33.7 Q 396.1 -35.9 396.1 -39.4 L 396.1 -39.4 L 396.1 -39.4 Q 396.1 -42 398.1 -43.5 L 398.1 -43.5 L 398.1 -43.5 Q 400 -45 403.1 -45 L 403.1 -45 L 403.1 -45 Q 405.8 -45 407.9 -43.9 L 407.9 -43.9 L 407.9 -43.9 Q 409.1 -43.2 409.6 -42.3 L 409.6 -42.3 L 409.6 -42.3 Q 408.2 -41 408.2 -38.9 L 408.2 -38.9 L 408.2 -38.9 Q 408.2 -36 410.7 -36 L 410.7 -36 L 410.7 -36 Q 415 -36 417.4 -45.8 L 417.4 -45.8 L 417.4 -45.8 Q 418.1 -48.7 418.7 -51.7 Z"></path></g></g><style>text {
  font-size: 64px;
  font-family: Arial Black;
  dominant-baseline: central;
  text-anchor: middle;
}</style></svg>